<svg version="1.1" viewBox="0.0 0.0 960.0 540.0" fill="none" stroke="none" stroke-linecap="square" stroke-miterlimit="10" xmlns:xlink="http://www.w3.org/1999/xlink" xmlns="http://www.w3.org/2000/svg"><clipPath id="p.0"><path d="m0 0l960.0 0l0 540.0l-960.0 0l0 -540.0z" clip-rule="nonzero"/></clipPath><g clip-path="url(#p.0)"><path fill="#000000" fill-opacity="0.0" d="m0 0l960.0 0l0 540.0l-960.0 0z" fill-rule="evenodd"/><path fill="#ff9900" d="m82.94884 165.79802l205.57481 0l0 125.17009l-25.034637 25.034637l-180.54018 0z" fill-rule="evenodd"/><path fill="#cb7a00" d="m263.489 316.00275l5.0069275 -20.02771l20.02771 -5.0069275z" fill-rule="evenodd"/><path fill="#000000" fill-opacity="0.0" d="m263.489 316.00275l5.0069275 -20.02771l20.02771 -5.0069275l-25.034637 25.034637l-180.54018 0l0 -150.20473l205.57481 0l0 125.17009" fill-rule="evenodd"/><path stroke="#000000" stroke-width="1.0" stroke-linejoin="round" stroke-linecap="butt" d="m263.489 316.00275l5.0069275 -20.02771l20.02771 -5.0069275l-25.034637 25.034637l-180.54018 0l0 -150.20473l205.57481 0l0 125.17009" fill-rule="evenodd"/><path fill="#000000" d="m158.53282 194.63931l-3.65625 0l0 -2.625q0 -1.578125 0.28125 -2.5q0.28125 -0.921875 1.03125 -1.640625q0.75 -0.734375 1.921875 -1.15625l0.71875 1.515625q-1.09375 0.359375 -1.578125 1.015625q-0.46875 0.640625 -0.484375 1.734375l1.765625 0l0 3.65625zm6.109375 0l-3.65625 0l0 -2.625q0 -1.59375 0.265625 -2.5q0.28125 -0.921875 1.046875 -1.640625q0.765625 -0.734375 1.921875 -1.15625l0.71875 1.515625q-1.09375 0.359375 -1.578125 1.015625q-0.46875 0.640625 -0.5 1.734375l1.78125 0l0 3.65625zm3.765625 -7.734375l7.046875 0q2.375 0 3.625 0.359375q1.6875 0.5 2.875 1.765625q1.203125 1.25 1.828125 3.078125q0.625 1.828125 0.625 4.515625q0 2.359375 -0.578125 4.0625q-0.71875 2.078125 -2.046875 3.375q-1.0 0.96875 -2.703125 1.515625q-1.28125 0.40625 -3.421875 0.40625l-7.25 0l0 -19.078125zm3.859375 3.21875l0 12.640625l2.875 0q1.609375 0 2.328125 -0.171875q0.9375 -0.234375 1.546875 -0.796875q0.625 -0.5625 1.015625 -1.84375q0.390625 -1.28125 0.390625 -3.5q0 -2.203125 -0.390625 -3.390625q-0.390625 -1.1875 -1.09375 -1.84375q-0.703125 -0.671875 -1.78125 -0.90625q-0.8125 -0.1875 -3.15625 -0.1875l-1.734375 0zm15.422165 -3.21875l7.625 0q2.265625 0 3.375 0.1875q1.109375 0.1875 1.984375 0.796875q0.890625 0.59375 1.46875 1.59375q0.59375 0.984375 0.59375 2.21875q0 1.34375 -0.734375 2.46875q-0.71875 1.109375 -1.953125 1.671875q1.75 0.515625 2.6875 1.734375q0.9375 1.21875 0.9375 2.875q0 1.296875 -0.609375 2.53125q-0.609375 1.234375 -1.65625 1.96875q-1.046875 0.734375 -2.578125 0.90625q-0.96875 0.09375 -4.640625 0.125l-6.5 0l0 -19.078125zm3.859375 3.171875l0 4.40625l2.515625 0q2.25 0 2.796875 -0.0625q1.0 -0.109375 1.5625 -0.671875q0.5625 -0.578125 0.5625 -1.5q0 -0.875 -0.484375 -1.421875q-0.484375 -0.5625 -1.453125 -0.6875q-0.578125 -0.0625 -3.296875 -0.0625l-2.203125 0zm0 7.59375l0 5.09375l3.5625 0q2.078125 0 2.640625 -0.109375q0.859375 -0.15625 1.390625 -0.765625q0.546875 -0.609375 0.546875 -1.625q0 -0.859375 -0.421875 -1.453125q-0.40625 -0.59375 -1.203125 -0.859375q-0.78125 -0.28125 -3.40625 -0.28125l-3.109375 0zm21.25029 -10.765625l3.65625 0l0 2.625q0 1.59375 -0.28125 2.5q-0.28125 0.90625 -1.046875 1.640625q-0.75 0.734375 -1.921875 1.15625l-0.703125 -1.515625q1.09375 -0.375 1.5625 -1.015625q0.46875 -0.65625 0.484375 -1.734375l-1.75 0l0 -3.65625zm-6.140625 0l3.65625 0l0 2.625q0 1.59375 -0.28125 2.5q-0.265625 0.90625 -1.03125 1.640625q-0.765625 0.734375 -1.9375 1.15625l-0.71875 -1.515625q1.109375 -0.375 1.578125 -1.015625q0.46875 -0.65625 0.5 -1.734375l-1.765625 0l0 -3.65625z" fill-rule="nonzero"/><path fill="#000000" d="m125.58968 275.59244l-2.515625 0q-2.0 -3.0 -3.046875 -6.234375q-1.03125 -3.25 -1.03125 -6.28125q0 -3.765625 1.296875 -7.125q1.109375 -2.921875 2.828125 -5.375l2.5 0q-1.78125 3.9375 -2.453125 6.703125q-0.671875 2.765625 -0.671875 5.875q0 2.125 0.390625 4.375q0.40625 2.234375 1.09375 4.25q0.453125 1.328125 1.609375 3.8125zm9.720497 -24.6875l3.84375 0l0 12.078125q0 2.359375 -0.421875 3.640625q-0.5625 1.671875 -2.03125 2.6875q-1.46875 1.0 -3.875 1.0q-2.828125 0 -4.359375 -1.578125q-1.5156326 -1.59375 -1.5312576 -4.640625l3.6406326 -0.421875q0.0625 1.640625 0.46875 2.3125q0.625 1.03125 1.90625 1.03125q1.28125 0 1.8125 -0.734375q0.546875 -0.734375 0.546875 -3.046875l0 -12.328125zm6.965561 12.875l3.75 -0.375q0.328125 1.890625 1.359375 2.78125q1.046875 0.875 2.796875 0.875q1.859375 0 2.796875 -0.78125q0.953125 -0.78125 0.953125 -1.84375q0 -0.671875 -0.40625 -1.140625q-0.390625 -0.484375 -1.375 -0.828125q-0.671875 -0.234375 -3.09375 -0.84375q-3.09375 -0.765625 -4.34375 -1.890625q-1.75 -1.5625 -1.75 -3.828125q0 -1.46875 0.828125 -2.734375q0.828125 -1.265625 2.375 -1.921875q1.5625 -0.671875 3.75 -0.671875q3.59375 0 5.40625 1.578125q1.828125 1.578125 1.921875 4.203125l-3.859375 0.171875q-0.25 -1.46875 -1.0625 -2.109375q-0.8125 -0.65625 -2.4375 -0.65625q-1.6875 0 -2.625 0.6875q-0.609375 0.453125 -0.609375 1.1875q0 0.671875 0.5625 1.15625q0.734375 0.609375 3.546875 1.28125q2.8125 0.65625 4.15625 1.375q1.34375 0.703125 2.109375 1.9375q0.765625 1.234375 0.765625 3.03125q0 1.640625 -0.921875 3.078125q-0.90625 1.4375 -2.578125 2.140625q-1.65625 0.6875 -4.140625 0.6875q-3.625 0 -5.5625 -1.671875q-1.9375 -1.671875 -2.3125 -4.875zm17.96701 -3.21875q0 -2.921875 0.875 -4.890625q0.65625 -1.46875 1.78125 -2.625q1.125 -1.15625 2.46875 -1.71875q1.78125 -0.75 4.109375 -0.75q4.21875 0 6.75 2.625q2.53125 2.609375 2.53125 7.265625q0 4.625 -2.515625 7.234375q-2.515625 2.609375 -6.71875 2.609375q-4.25 0 -6.765625 -2.59375q-2.515625 -2.609375 -2.515625 -7.15625zm3.96875 -0.125q0 3.234375 1.5 4.90625q1.5 1.671875 3.796875 1.671875q2.3125 0 3.78125 -1.65625q1.484375 -1.65625 1.484375 -4.984375q0 -3.28125 -1.4375 -4.890625q-1.4375 -1.609375 -3.828125 -1.609375q-2.375 0 -3.84375 1.640625q-1.453125 1.625 -1.453125 4.921875zm17.59346 9.546875l0 -19.078125l3.75 0l7.796875 12.734375l0 -12.734375l3.578125 0l0 19.078125l-3.859375 0l-7.6875 -12.4375l0 12.4375l-3.578125 0zm24.984375 -13.828125l2.03125 0l0 -1.03125q0 -1.75 0.359375 -2.609375q0.375 -0.859375 1.375 -1.390625q0.99998474 -0.546875 2.5156097 -0.546875q1.5625 0 3.0625 0.46875l-0.5 2.546875q-0.859375 -0.203125 -1.671875 -0.203125q-0.796875 0 -1.140625 0.375q-0.34375 0.359375 -0.34375 1.421875l0 0.96875l2.734375 0l0 2.875l-2.734375 0l0 10.953125l-3.6562347 0l0 -10.953125l-2.03125 0l0 -2.875zm10.470474 -1.875l0 -3.375l3.671875 0l0 3.375l-3.671875 0zm0 15.703125l0 -13.828125l3.671875 0l0 13.828125l-3.671875 0zm7.4059753 0l0 -19.078125l3.671875 0l0 19.078125l-3.671875 0zm15.42157 -4.40625l3.640625 0.625q-0.703125 2.0 -2.21875 3.046875q-1.515625 1.046875 -3.796875 1.046875q-3.609375 0 -5.328125 -2.359375q-1.375 -1.890625 -1.375 -4.765625q0 -3.4375 1.796875 -5.375q1.796875 -1.953125 4.546875 -1.953125q3.078125 0 4.859375 2.046875q1.78125 2.03125 1.703125 6.234375l-9.15625 0q0.046875 1.625 0.890625 2.53125q0.84375 0.90625 2.109375 0.90625q0.859375 0 1.4375 -0.46875q0.59375 -0.46875 0.890625 -1.515625zm0.203125 -3.6875q-0.03125 -1.59375 -0.8125 -2.421875q-0.78125 -0.828125 -1.90625 -0.828125q-1.203125 0 -1.984375 0.875q-0.78125 0.875 -0.765625 2.375l5.46875 0zm5.590576 13.703125q1.09375 -2.3125 1.53125 -3.5625q0.4375 -1.234375 0.8125 -2.84375q0.390625 -1.609375 0.5625 -3.0625q0.1875 -1.453125 0.1875 -2.96875q0 -3.109375 -0.671875 -5.875q-0.65625 -2.765625 -2.4375 -6.703125l2.484375 0q1.96875 2.796875 3.046875 5.9375q1.09375 3.140625 1.09375 6.359375q0 2.71875 -0.859375 5.828125q-0.984375 3.5 -3.21875 6.890625l-2.53125 0z" fill-rule="nonzero"/><path fill="#f3f3f3" d="m468.37082 70.49794l172.06296 0l0 178.44037l-28.677734 28.67775l-143.38522 0z" fill-rule="evenodd"/><path fill="#c2c2c2" d="m611.75604 277.61606l5.7355957 -22.9422l22.942139 -5.73555z" fill-rule="evenodd"/><path fill="#000000" fill-opacity="0.0" d="m611.75604 277.61606l5.7355957 -22.9422l22.942139 -5.73555l-28.677734 28.67775l-143.38522 0l0 -207.11812l172.06296 0l0 178.44037" fill-rule="evenodd"/><path stroke="#000000" stroke-width="1.0" stroke-linejoin="round" stroke-linecap="butt" d="m611.75604 277.61606l5.7355957 -22.9422l22.942139 -5.73555l-28.677734 28.67775l-143.38522 0l0 -207.11812l172.06296 0l0 178.44037" fill-rule="evenodd"/><path fill="#000000" d="m527.4579 169.31813l0 -19.078125l6.1875 0q3.515625 0 4.578125 0.28125q1.640625 0.4375 2.75 1.875q1.109375 1.4375 1.109375 3.703125q0 1.765625 -0.640625 2.96875q-0.640625 1.1875 -1.625 1.875q-0.984375 0.6875 -2.0 0.90625q-1.375 0.265625 -4.0 0.265625l-2.5 0l0 7.203125l-3.859375 0zm3.859375 -15.859375l0 5.421875l2.109375 0q2.265625 0 3.03125 -0.296875q0.78125 -0.296875 1.21875 -0.9375q0.4375 -0.640625 0.4375 -1.484375q0 -1.046875 -0.625 -1.71875q-0.609375 -0.671875 -1.546875 -0.84375q-0.6875 -0.140625 -2.765625 -0.140625l-1.859375 0zm13.045105 8.75q0 -1.8125 0.890625 -3.515625q0.90625 -1.71875 2.546875 -2.609375q1.65625 -0.90625 3.6875 -0.90625q3.140625 0 5.140625 2.046875q2.0 2.03125 2.0 5.140625q0 3.140625 -2.03125 5.203125q-2.015625 2.0625 -5.078125 2.0625q-1.90625 0 -3.640625 -0.859375q-1.71875 -0.859375 -2.625 -2.515625q-0.890625 -1.65625 -0.890625 -4.046875zm3.75 0.203125q0 2.046875 0.96875 3.140625q0.984375 1.09375 2.421875 1.09375q1.421875 0 2.390625 -1.09375q0.984375 -1.09375 0.984375 -3.171875q0 -2.03125 -0.984375 -3.125q-0.96875 -1.09375 -2.390625 -1.09375q-1.4375 0 -2.421875 1.09375q-0.96875 1.09375 -0.96875 3.15625zm12.095215 2.96875l3.671875 -0.5625q0.234375 1.0625 0.953125 1.625q0.71875 0.546875 2.0 0.546875q1.421875 0 2.140625 -0.515625q0.46875 -0.375 0.46875 -0.984375q0 -0.421875 -0.25 -0.6875q-0.28125 -0.265625 -1.234375 -0.484375q-4.421875 -0.96875 -5.609375 -1.78125q-1.640625 -1.125 -1.640625 -3.109375q0 -1.796875 1.421875 -3.015625q1.421875 -1.234375 4.40625 -1.234375q2.828125 0 4.203125 0.9375q1.390625 0.921875 1.90625 2.71875l-3.4375 0.640625q-0.234375 -0.796875 -0.859375 -1.21875q-0.609375 -0.4375 -1.75 -0.4375q-1.4375 0 -2.0625 0.390625q-0.421875 0.296875 -0.421875 0.75q0 0.390625 0.359375 0.65625q0.5 0.375 3.421875 1.046875q2.921875 0.65625 4.078125 1.609375q1.140625 0.984375 1.140625 2.71875q0 1.90625 -1.59375 3.28125q-1.578125 1.359375 -4.6875 1.359375q-2.828125 0 -4.484375 -1.140625q-1.640625 -1.15625 -2.140625 -3.109375zm22.449951 -9.890625l0 2.921875l-2.5 0l0 5.5625q0 1.703125 0.0625 1.984375q0.078125 0.28125 0.328125 0.46875q0.265625 0.171875 0.625 0.171875q0.515625 0 1.46875 -0.359375l0.3125 2.84375q-1.265625 0.546875 -2.890625 0.546875q-0.984375 0 -1.78125 -0.328125q-0.796875 -0.328125 -1.171875 -0.859375q-0.359375 -0.53125 -0.5 -1.421875q-0.125 -0.640625 -0.125 -2.578125l0 -6.03125l-1.671875 0l0 -2.921875l1.671875 0l0 -2.734375l3.671875 -2.140625l0 4.875l2.5 0z" fill-rule="nonzero"/><path fill="#f3f3f3" d="m515.6943 108.875145l172.06299 0l0 178.44037l-28.677734 28.677734l-143.38525 0z" fill-rule="evenodd"/><path fill="#c2c2c2" d="m659.0795 315.99326l5.7355347 -22.9422l22.9422 -5.7355347z" fill-rule="evenodd"/><path fill="#000000" fill-opacity="0.0" d="m659.0795 315.99326l5.7355347 -22.9422l22.9422 -5.7355347l-28.677734 28.677734l-143.38525 0l0 -207.1181l172.06299 0l0 178.44037" fill-rule="evenodd"/><path stroke="#000000" stroke-width="1.0" stroke-linejoin="round" stroke-linecap="butt" d="m659.0795 315.99326l5.7355347 -22.9422l22.9422 -5.7355347l-28.677734 28.677734l-143.38525 0l0 -207.1181l172.06299 0l0 178.44037" fill-rule="evenodd"/><path fill="#000000" d="m574.7813 207.69533l0 -19.078125l6.1875 0q3.515625 0 4.578125 0.28125q1.640625 0.4375 2.75 1.875q1.109375 1.4375 1.109375 3.703125q0 1.765625 -0.640625 2.96875q-0.640625 1.1875 -1.625 1.875q-0.984375 0.6875 -2.0 0.90625q-1.375 0.265625 -4.0 0.265625l-2.5 0l0 7.203125l-3.859375 0zm3.859375 -15.859375l0 5.421875l2.109375 0q2.265625 0 3.03125 -0.296875q0.78125 -0.296875 1.21875 -0.9375q0.4375 -0.640625 0.4375 -1.484375q0 -1.046875 -0.625 -1.71875q-0.609375 -0.671875 -1.546875 -0.84375q-0.6875 -0.140625 -2.765625 -0.140625l-1.859375 0zm13.045166 8.75q0 -1.8125 0.890625 -3.515625q0.90625 -1.71875 2.546875 -2.609375q1.65625 -0.90625 3.6875 -0.90625q3.140625 0 5.140625 2.046875q2.0 2.03125 2.0 5.140625q0 3.140625 -2.03125 5.203125q-2.015625 2.0625 -5.078125 2.0625q-1.90625 0 -3.640625 -0.859375q-1.71875 -0.859375 -2.625 -2.515625q-0.890625 -1.65625 -0.890625 -4.046875zm3.75 0.203125q0 2.046875 0.96875 3.140625q0.984375 1.09375 2.421875 1.09375q1.421875 0 2.390625 -1.09375q0.984375 -1.09375 0.984375 -3.171875q0 -2.03125 -0.984375 -3.125q-0.96875 -1.09375 -2.390625 -1.09375q-1.4375 0 -2.421875 1.09375q-0.96875 1.09375 -0.96875 3.15625zm12.095215 2.96875l3.671875 -0.5625q0.234375 1.0625 0.953125 1.625q0.71875 0.546875 2.0 0.546875q1.421875 0 2.140625 -0.515625q0.46875 -0.375 0.46875 -0.984375q0 -0.421875 -0.25 -0.6875q-0.28125 -0.265625 -1.234375 -0.484375q-4.421875 -0.96875 -5.609375 -1.78125q-1.640625 -1.125 -1.640625 -3.109375q0 -1.796875 1.421875 -3.015625q1.421875 -1.234375 4.40625 -1.234375q2.828125 0 4.203125 0.9375q1.390625 0.921875 1.90625 2.71875l-3.4375 0.640625q-0.234375 -0.796875 -0.859375 -1.21875q-0.609375 -0.4375 -1.75 -0.4375q-1.4375 0 -2.0625 0.390625q-0.421875 0.296875 -0.421875 0.75q0 0.390625 0.359375 0.65625q0.5 0.375 3.421875 1.046875q2.921875 0.65625 4.078125 1.609375q1.140625 0.984375 1.140625 2.71875q0 1.90625 -1.59375 3.28125q-1.578125 1.359375 -4.6875 1.359375q-2.828125 0 -4.484375 -1.140625q-1.640625 -1.15625 -2.140625 -3.109375zm22.44989 -9.890625l0 2.921875l-2.5 0l0 5.5625q0 1.703125 0.0625 1.984375q0.078125 0.28125 0.328125 0.46875q0.265625 0.171875 0.625 0.171875q0.515625 0 1.46875 -0.359375l0.3125 2.84375q-1.265625 0.546875 -2.890625 0.546875q-0.984375 0 -1.78125 -0.328125q-0.796875 -0.328125 -1.171875 -0.859375q-0.359375 -0.53125 -0.5 -1.421875q-0.125 -0.640625 -0.125 -2.578125l0 -6.03125l-1.671875 0l0 -2.921875l1.671875 0l0 -2.734375l3.671875 -2.140625l0 4.875l2.5 0z" fill-rule="nonzero"/><path fill="#f3f3f3" d="m563.01776 147.25235l172.06299 0l0 178.44037l-28.677734 28.677734l-143.38525 0z" fill-rule="evenodd"/><path fill="#c2c2c2" d="m706.403 354.37045l5.7355347 -22.9422l22.9422 -5.7355347z" fill-rule="evenodd"/><path fill="#000000" fill-opacity="0.0" d="m706.403 354.37045l5.7355347 -22.9422l22.9422 -5.7355347l-28.677734 28.677734l-143.38525 0l0 -207.1181l172.06299 0l0 178.44037" fill-rule="evenodd"/><path stroke="#000000" stroke-width="1.0" stroke-linejoin="round" stroke-linecap="butt" d="m706.403 354.37045l5.7355347 -22.9422l22.9422 -5.7355347l-28.677734 28.677734l-143.38525 0l0 -207.1181l172.06299 0l0 178.44037" fill-rule="evenodd"/><path fill="#000000" d="m622.1048 246.07253l0 -19.078125l6.1875 0q3.515625 0 4.578125 0.28125q1.640625 0.4375 2.75 1.875q1.109375 1.4375 1.109375 3.703125q0 1.765625 -0.640625 2.96875q-0.640625 1.1875 -1.625 1.875q-0.984375 0.6875 -2.0 0.90625q-1.375 0.265625 -4.0 0.265625l-2.5 0l0 7.203125l-3.859375 0zm3.859375 -15.859375l0 5.421875l2.109375 0q2.265625 0 3.03125 -0.296875q0.78125 -0.296875 1.21875 -0.9375q0.4375 -0.640625 0.4375 -1.484375q0 -1.046875 -0.625 -1.71875q-0.609375 -0.671875 -1.546875 -0.84375q-0.6875 -0.140625 -2.765625 -0.140625l-1.859375 0zm13.045166 8.75q0 -1.8125 0.890625 -3.515625q0.90625 -1.71875 2.546875 -2.609375q1.65625 -0.90625 3.6875 -0.90625q3.140625 0 5.140625 2.046875q2.0 2.03125 2.0 5.140625q0 3.140625 -2.03125 5.203125q-2.015625 2.0625 -5.078125 2.0625q-1.90625 0 -3.640625 -0.859375q-1.71875 -0.859375 -2.625 -2.515625q-0.890625 -1.65625 -0.890625 -4.046875zm3.75 0.203125q0 2.046875 0.96875 3.140625q0.984375 1.09375 2.421875 1.09375q1.421875 0 2.390625 -1.09375q0.984375 -1.09375 0.984375 -3.171875q0 -2.03125 -0.984375 -3.125q-0.96875 -1.09375 -2.390625 -1.09375q-1.4375 0 -2.421875 1.09375q-0.96875 1.09375 -0.96875 3.15625zm12.095154 2.96875l3.671875 -0.5625q0.234375 1.0625 0.953125 1.625q0.71875 0.546875 2.0 0.546875q1.421875 0 2.140625 -0.515625q0.46875 -0.375 0.46875 -0.984375q0 -0.421875 -0.25 -0.6875q-0.28125 -0.265625 -1.234375 -0.484375q-4.421875 -0.96875 -5.609375 -1.78125q-1.640625 -1.125 -1.640625 -3.109375q0 -1.796875 1.421875 -3.015625q1.421875 -1.234375 4.40625 -1.234375q2.828125 0 4.203125 0.9375q1.390625 0.921875 1.90625 2.71875l-3.4375 0.640625q-0.234375 -0.796875 -0.859375 -1.21875q-0.609375 -0.4375 -1.75 -0.4375q-1.4375 0 -2.0625 0.390625q-0.421875 0.296875 -0.421875 0.75q0 0.390625 0.359375 0.65625q0.5 0.375 3.421875 1.046875q2.921875 0.65625 4.078125 1.609375q1.140625 0.984375 1.140625 2.71875q0 1.90625 -1.59375 3.28125q-1.578125 1.359375 -4.6875 1.359375q-2.828125 0 -4.484375 -1.140625q-1.640625 -1.15625 -2.140625 -3.109375zm22.449951 -9.890625l0 2.921875l-2.5 0l0 5.5625q0 1.703125 0.0625 1.984375q0.078125 0.28125 0.328125 0.46875q0.265625 0.171875 0.625 0.171875q0.515625 0 1.46875 -0.359375l0.3125 2.84375q-1.265625 0.546875 -2.890625 0.546875q-0.984375 0 -1.78125 -0.328125q-0.796875 -0.328125 -1.171875 -0.859375q-0.359375 -0.53125 -0.5 -1.421875q-0.125 -0.640625 -0.125 -2.578125l0 -6.03125l-1.671875 0l0 -2.921875l1.671875 0l0 -2.734375l3.671875 -2.140625l0 4.875l2.5 0z" fill-rule="nonzero"/><path fill="#f3f3f3" d="m610.34125 185.62955l172.06299 0l0 178.44037l-28.677734 28.677734l-143.38525 0z" fill-rule="evenodd"/><path fill="#c2c2c2" d="m753.7265 392.74765l5.7355347 -22.9422l22.9422 -5.7355347z" fill-rule="evenodd"/><path fill="#000000" fill-opacity="0.0" d="m753.7265 392.74765l5.7355347 -22.9422l22.9422 -5.7355347l-28.677734 28.677734l-143.38525 0l0 -207.1181l172.06299 0l0 178.44037" fill-rule="evenodd"/><path stroke="#000000" stroke-width="1.0" stroke-linejoin="round" stroke-linecap="butt" d="m753.7265 392.74765l5.7355347 -22.9422l22.9422 -5.7355347l-28.677734 28.677734l-143.38525 0l0 -207.1181l172.06299 0l0 178.44037" fill-rule="evenodd"/><path fill="#000000" d="m669.4283 284.44974l0 -19.078125l6.1875 0q3.515625 0 4.578125 0.28125q1.640625 0.4375 2.75 1.875q1.109375 1.4375 1.109375 3.703125q0 1.765625 -0.640625 2.96875q-0.640625 1.1875 -1.625 1.875q-0.984375 0.6875 -2.0 0.90625q-1.375 0.265625 -4.0 0.265625l-2.5 0l0 7.203125l-3.859375 0zm3.859375 -15.859375l0 5.421875l2.109375 0q2.265625 0 3.03125 -0.296875q0.78125 -0.296875 1.21875 -0.9375q0.4375 -0.640625 0.4375 -1.484375q0 -1.046875 -0.625 -1.71875q-0.609375 -0.671875 -1.546875 -0.84375q-0.6875 -0.140625 -2.765625 -0.140625l-1.859375 0zm13.045105 8.75q0 -1.8125 0.890625 -3.515625q0.90625 -1.71875 2.546875 -2.609375q1.65625 -0.90625 3.6875 -0.90625q3.140625 0 5.140625 2.046875q2.0 2.03125 2.0 5.140625q0 3.140625 -2.03125 5.203125q-2.015625 2.0625 -5.078125 2.0625q-1.90625 0 -3.640625 -0.859375q-1.71875 -0.859375 -2.625 -2.515625q-0.890625 -1.65625 -0.890625 -4.046875zm3.75 0.203125q0 2.046875 0.96875 3.140625q0.984375 1.09375 2.421875 1.09375q1.421875 0 2.390625 -1.09375q0.984375 -1.09375 0.984375 -3.171875q0 -2.03125 -0.984375 -3.125q-0.96875 -1.09375 -2.390625 -1.09375q-1.4375 0 -2.421875 1.09375q-0.96875 1.09375 -0.96875 3.15625zm12.095215 2.96875l3.671875 -0.5625q0.234375 1.0625 0.953125 1.625q0.71875 0.546875 2.0 0.546875q1.421875 0 2.140625 -0.515625q0.46875 -0.375 0.46875 -0.984375q0 -0.421875 -0.25 -0.6875q-0.28125 -0.265625 -1.234375 -0.484375q-4.421875 -0.96875 -5.609375 -1.78125q-1.640625 -1.125 -1.640625 -3.109375q0 -1.796875 1.421875 -3.015625q1.421875 -1.234375 4.40625 -1.234375q2.828125 0 4.203125 0.9375q1.390625 0.921875 1.90625 2.71875l-3.4375 0.640625q-0.234375 -0.796875 -0.859375 -1.21875q-0.609375 -0.4375 -1.75 -0.4375q-1.4375 0 -2.0625 0.390625q-0.421875 0.296875 -0.421875 0.75q0 0.390625 0.359375 0.65625q0.5 0.375 3.421875 1.046875q2.921875 0.65625 4.078125 1.609375q1.140625 0.984375 1.140625 2.71875q0 1.90625 -1.59375 3.28125q-1.578125 1.359375 -4.6875 1.359375q-2.828125 0 -4.484375 -1.140625q-1.640625 -1.15625 -2.140625 -3.109375zm22.449951 -9.890625l0 2.921875l-2.5 0l0 5.5625q0 1.703125 0.0625 1.984375q0.078125 0.28125 0.328125 0.46875q0.265625 0.171875 0.625 0.171875q0.515625 0 1.46875 -0.359375l0.3125 2.84375q-1.265625 0.546875 -2.890625 0.546875q-0.984375 0 -1.78125 -0.328125q-0.796875 -0.328125 -1.171875 -0.859375q-0.359375 -0.53125 -0.5 -1.421875q-0.125 -0.640625 -0.125 -2.578125l0 -6.03125l-1.671875 0l0 -2.921875l1.671875 0l0 -2.734375l3.671875 -2.140625l0 4.875l2.5 0z" fill-rule="nonzero"/><path fill="#f3f3f3" d="m657.6647 224.00674l172.06299 0l0 178.44037l-28.677734 28.677734l-143.38525 0z" fill-rule="evenodd"/><path fill="#c2c2c2" d="m801.0499 431.12485l5.7355957 -22.94217l22.942139 -5.735565z" fill-rule="evenodd"/><path fill="#000000" fill-opacity="0.0" d="m801.0499 431.12485l5.7355957 -22.94217l22.942139 -5.735565l-28.677734 28.677734l-143.38525 0l0 -207.1181l172.06299 0l0 178.44037" fill-rule="evenodd"/><path stroke="#000000" stroke-width="1.0" stroke-linejoin="round" stroke-linecap="butt" d="m801.0499 431.12485l5.7355957 -22.94217l22.942139 -5.735565l-28.677734 28.677734l-143.38525 0l0 -207.1181l172.06299 0l0 178.44037" fill-rule="evenodd"/><path fill="#000000" d="m716.7518 322.82693l0 -19.078125l6.1875 0q3.515625 0 4.578125 0.28125q1.640625 0.4375 2.75 1.875q1.109375 1.4375 1.109375 3.703125q0 1.765625 -0.640625 2.96875q-0.640625 1.1875 -1.625 1.875q-0.984375 0.6875 -2.0 0.90625q-1.375 0.265625 -4.0 0.265625l-2.5 0l0 7.203125l-3.859375 0zm3.859375 -15.859375l0 5.421875l2.109375 0q2.265625 0 3.03125 -0.296875q0.78125 -0.296875 1.21875 -0.9375q0.4375 -0.640625 0.4375 -1.484375q0 -1.046875 -0.625 -1.71875q-0.609375 -0.671875 -1.546875 -0.84375q-0.6875 -0.140625 -2.765625 -0.140625l-1.859375 0zm13.045105 8.75q0 -1.8125 0.890625 -3.515625q0.90625 -1.71875 2.546875 -2.609375q1.65625 -0.90625 3.6875 -0.90625q3.140625 0 5.140625 2.046875q2.0 2.03125 2.0 5.140625q0 3.140625 -2.03125 5.203125q-2.015625 2.0625 -5.078125 2.0625q-1.90625 0 -3.640625 -0.859375q-1.71875 -0.859375 -2.625 -2.515625q-0.890625 -1.65625 -0.890625 -4.046875zm3.75 0.203125q0 2.046875 0.96875 3.140625q0.984375 1.09375 2.421875 1.09375q1.421875 0 2.390625 -1.09375q0.984375 -1.09375 0.984375 -3.171875q0 -2.03125 -0.984375 -3.125q-0.96875 -1.09375 -2.390625 -1.09375q-1.4375 0 -2.421875 1.09375q-0.96875 1.09375 -0.96875 3.15625zm12.095215 2.96875l3.671875 -0.5625q0.234375 1.0625 0.953125 1.625q0.71875 0.546875 2.0 0.546875q1.421875 0 2.140625 -0.515625q0.46875 -0.375 0.46875 -0.984375q0 -0.421875 -0.25 -0.6875q-0.28125 -0.265625 -1.234375 -0.484375q-4.421875 -0.96875 -5.609375 -1.78125q-1.640625 -1.125 -1.640625 -3.109375q0 -1.796875 1.421875 -3.015625q1.421875 -1.234375 4.40625 -1.234375q2.828125 0 4.203125 0.9375q1.390625 0.921875 1.90625 2.71875l-3.4375 0.640625q-0.234375 -0.796875 -0.859375 -1.21875q-0.609375 -0.4375 -1.75 -0.4375q-1.4375 0 -2.0625 0.390625q-0.421875 0.296875 -0.421875 0.75q0 0.390625 0.359375 0.65625q0.5 0.375 3.421875 1.046875q2.921875 0.65625 4.078125 1.609375q1.140625 0.984375 1.140625 2.71875q0 1.90625 -1.59375 3.28125q-1.578125 1.359375 -4.6875 1.359375q-2.828125 0 -4.484375 -1.140625q-1.640625 -1.15625 -2.140625 -3.109375zm22.449951 -9.890625l0 2.921875l-2.5 0l0 5.5625q0 1.703125 0.0625 1.984375q0.078125 0.28125 0.328125 0.46875q0.265625 0.171875 0.625 0.171875q0.515625 0 1.46875 -0.359375l0.3125 2.84375q-1.265625 0.546875 -2.890625 0.546875q-0.984375 0 -1.78125 -0.328125q-0.796875 -0.328125 -1.171875 -0.859375q-0.359375 -0.53125 -0.5 -1.421875q-0.125 -0.640625 -0.125 -2.578125l0 -6.03125l-1.671875 0l0 -2.921875l1.671875 0l0 -2.734375l3.671875 -2.140625l0 4.875l2.5 0z" fill-rule="nonzero"/><path fill="#f3f3f3" d="m704.98816 262.38394l172.06299 0l0 178.44037l-28.677734 28.677734l-143.38525 0z" fill-rule="evenodd"/><path fill="#c2c2c2" d="m848.3734 469.50204l5.7355347 -22.94217l22.9422 -5.735565z" fill-rule="evenodd"/><path fill="#000000" fill-opacity="0.0" d="m848.3734 469.50204l5.7355347 -22.94217l22.9422 -5.735565l-28.677734 28.677734l-143.38525 0l0 -207.1181l172.06299 0l0 178.44037" fill-rule="evenodd"/><path stroke="#000000" stroke-width="1.0" stroke-linejoin="round" stroke-linecap="butt" d="m848.3734 469.50204l5.7355347 -22.94217l22.9422 -5.735565l-28.677734 28.677734l-143.38525 0l0 -207.1181l172.06299 0l0 178.44037" fill-rule="evenodd"/><path fill="#000000" d="m764.0752 329.20413l0 -19.078125l6.1875 0q3.515625 0 4.578125 0.28125q1.640625 0.4375 2.75 1.875q1.109375 1.4375 1.109375 3.703125q0 1.765625 -0.640625 2.96875q-0.640625 1.1875 -1.625 1.875q-0.984375 0.6875 -2.0 0.90625q-1.375 0.265625 -4.0 0.265625l-2.5 0l0 7.203125l-3.859375 0zm3.859375 -15.859375l0 5.421875l2.109375 0q2.265625 0 3.03125 -0.296875q0.78125 -0.296875 1.21875 -0.9375q0.4375 -0.640625 0.4375 -1.484375q0 -1.046875 -0.625 -1.71875q-0.609375 -0.671875 -1.546875 -0.84375q-0.6875 -0.140625 -2.765625 -0.140625l-1.859375 0zm13.045166 8.75q0 -1.8125 0.890625 -3.515625q0.90625 -1.71875 2.546875 -2.609375q1.65625 -0.90625 3.6875 -0.90625q3.140625 0 5.140625 2.046875q2.0 2.03125 2.0 5.140625q0 3.140625 -2.03125 5.203125q-2.015625 2.0625 -5.078125 2.0625q-1.90625 0 -3.640625 -0.859375q-1.71875 -0.859375 -2.625 -2.515625q-0.890625 -1.65625 -0.890625 -4.046875zm3.75 0.203125q0 2.046875 0.96875 3.140625q0.984375 1.09375 2.421875 1.09375q1.421875 0 2.390625 -1.09375q0.984375 -1.09375 0.984375 -3.171875q0 -2.03125 -0.984375 -3.125q-0.96875 -1.09375 -2.390625 -1.09375q-1.4375 0 -2.421875 1.09375q-0.96875 1.09375 -0.96875 3.15625zm12.095215 2.96875l3.671875 -0.5625q0.234375 1.0625 0.953125 1.625q0.71875 0.546875 2.0 0.546875q1.421875 0 2.140625 -0.515625q0.46875 -0.375 0.46875 -0.984375q0 -0.421875 -0.25 -0.6875q-0.28125 -0.265625 -1.234375 -0.484375q-4.421875 -0.96875 -5.609375 -1.78125q-1.640625 -1.125 -1.640625 -3.109375q0 -1.796875 1.421875 -3.015625q1.421875 -1.234375 4.40625 -1.234375q2.828125 0 4.203125 0.9375q1.390625 0.921875 1.90625 2.71875l-3.4375 0.640625q-0.234375 -0.796875 -0.859375 -1.21875q-0.609375 -0.4375 -1.75 -0.4375q-1.4375 0 -2.0625 0.390625q-0.421875 0.296875 -0.421875 0.75q0 0.390625 0.359375 0.65625q0.5 0.375 3.421875 1.046875q2.921875 0.65625 4.078125 1.609375q1.140625 0.984375 1.140625 2.71875q0 1.90625 -1.59375 3.28125q-1.578125 1.359375 -4.6875 1.359375q-2.828125 0 -4.484375 -1.140625q-1.640625 -1.15625 -2.140625 -3.109375zm22.44989 -9.890625l0 2.921875l-2.5 0l0 5.5625q0 1.703125 0.0625 1.984375q0.078125 0.28125 0.328125 0.46875q0.265625 0.171875 0.625 0.171875q0.515625 0 1.46875 -0.359375l0.3125 2.84375q-1.265625 0.546875 -2.890625 0.546875q-0.984375 0 -1.78125 -0.328125q-0.796875 -0.328125 -1.171875 -0.859375q-0.359375 -0.53125 -0.5 -1.421875q-0.125 -0.640625 -0.125 -2.578125l0 -6.03125l-1.671875 0l0 -2.921875l1.671875 0l0 -2.734375l3.671875 -2.140625l0 4.875l2.5 0z" fill-rule="nonzero"/><path fill="#000000" d="m724.22205 398.8135l-2.515625 0q-2.0 -3.0 -3.046875 -6.234375q-1.03125 -3.25 -1.03125 -6.28125q0 -3.765625 1.296875 -7.125q1.109375 -2.921875 2.828125 -5.375l2.5 0q-1.78125 3.9375 -2.453125 6.703125q-0.671875 2.765625 -0.671875 5.875q0 2.125 0.390625 4.375q0.40625 2.234375 1.09375 4.25q0.453125 1.328125 1.609375 3.8125zm2.78302 -5.609375l0 -19.078125l5.765625 0l3.453125 13.015625l3.421875 -13.015625l5.78125 0l0 19.078125l-3.578125 0l0 -15.015625l-3.78125 15.015625l-3.71875 0l-3.765625 -15.015625l0 15.015625l-3.578125 0zm24.954834 -9.609375l-3.3125 -0.59375q0.5625 -2.0 1.921875 -2.96875q1.375 -0.96875 4.0625 -0.96875q2.453125 0 3.640625 0.578125q1.203125 0.578125 1.6875 1.484375q0.5 0.890625 0.5 3.265625l-0.046875 4.265625q0 1.828125 0.171875 2.703125q0.171875 0.859375 0.65625 1.84375l-3.609375 0q-0.140625 -0.359375 -0.359375 -1.078125q-0.09375 -0.328125 -0.125 -0.4375q-0.9375 0.921875 -2.015625 1.375q-1.0625 0.453125 -2.265625 0.453125q-2.140625 0 -3.375 -1.15625q-1.21875 -1.15625 -1.21875 -2.9375q0 -1.171875 0.546875 -2.078125q0.5625 -0.921875 1.578125 -1.40625q1.015625 -0.484375 2.90625 -0.859375q2.5625 -0.484375 3.5625 -0.890625l0 -0.375q0 -1.046875 -0.53125 -1.5q-0.515625 -0.453125 -1.96875 -0.453125q-0.96875 0 -1.515625 0.390625q-0.546875 0.390625 -0.890625 1.34375zm4.90625 2.96875q-0.703125 0.234375 -2.234375 0.5625q-1.515625 0.328125 -1.984375 0.640625q-0.71875 0.5 -0.71875 1.28125q0 0.765625 0.5625 1.328125q0.578125 0.5625 1.46875 0.5625q0.984375 0 1.890625 -0.65625q0.65625 -0.484375 0.859375 -1.203125q0.15625 -0.46875 0.15625 -1.78125l0 -0.734375zm10.699951 6.640625l-3.671875 0l0 -13.828125l3.40625 0l0 1.96875q0.875 -1.390625 1.5625 -1.828125q0.703125 -0.453125 1.578125 -0.453125q1.25 0 2.421875 0.703125l-1.140625 3.1875q-0.921875 -0.609375 -1.71875 -0.609375q-0.765625 0 -1.296875 0.421875q-0.53125 0.421875 -0.84375 1.53125q-0.296875 1.109375 -0.296875 4.640625l0 4.265625zm6.73291 0l0 -19.078125l3.65625 0l0 10.125l4.28125 -4.875l4.5 0l-4.71875 5.0625l5.0625 8.765625l-3.9375 0l-3.484375 -6.203125l-1.703125 1.78125l0 4.421875l-3.65625 0zm27.637451 0l-3.40625 0l0 -2.03125q-0.84375 1.1875 -2.0 1.765625q-1.140625 0.578125 -2.3125 0.578125q-2.390625 0 -4.09375 -1.921875q-1.6875 -1.921875 -1.6875 -5.359375q0 -3.515625 1.65625 -5.34375q1.65625 -1.828125 4.171875 -1.828125q2.3125 0 4.015625 1.9375l0 -6.875l3.65625 0l0 19.078125zm-9.765625 -7.203125q0 2.203125 0.609375 3.1875q0.890625 1.4375 2.46875 1.4375q1.265625 0 2.15625 -1.0625q0.890625 -1.078125 0.890625 -3.21875q0 -2.375 -0.859375 -3.421875q-0.859375 -1.0625 -2.203125 -1.0625q-1.296875 0 -2.1875 1.046875q-0.875 1.03125 -0.875 3.09375zm12.51709 0.09375q0 -1.8125 0.890625 -3.515625q0.90625 -1.71875 2.546875 -2.609375q1.65625 -0.90625 3.6875 -0.90625q3.140625 0 5.140625 2.046875q2.0 2.03125 2.0 5.140625q0 3.140625 -2.03125 5.203125q-2.015625 2.0625 -5.078125 2.0625q-1.90625 0 -3.640625 -0.859375q-1.71875 -0.859375 -2.625 -2.515625q-0.890625 -1.65625 -0.890625 -4.046875zm3.75 0.203125q0 2.046875 0.96875 3.140625q0.984375 1.09375 2.421875 1.09375q1.421875 0 2.390625 -1.09375q0.984375 -1.09375 0.984375 -3.171875q0 -2.03125 -0.984375 -3.125q-0.96875 -1.09375 -2.390625 -1.09375q-1.4375 0 -2.421875 1.09375q-0.96875 1.09375 -0.96875 3.15625zm15.95459 6.90625l-4.375 -13.828125l3.5625 0l2.59375 9.0625l2.375 -9.0625l3.53125 0l2.296875 9.0625l2.640625 -9.0625l3.609375 0l-4.4375 13.828125l-3.515625 0l-2.375 -8.890625l-2.34375 8.890625l-3.5625 0zm30.73407 0l-3.65625 0l0 -7.046875q0 -2.25 -0.234375 -2.90625q-0.234375 -0.65625 -0.765625 -1.015625q-0.515625 -0.375 -1.265625 -0.375q-0.953125 0 -1.703125 0.53125q-0.75 0.515625 -1.03125 1.375q-0.28125 0.859375 -0.28125 3.171875l0 6.265625l-3.65625 0l0 -13.828125l3.390625 0l0 2.03125q1.8125 -2.34375 4.5625 -2.34375q1.203125 0 2.203125 0.4375q1.015625 0.4375 1.515625 1.125q0.515625 0.671875 0.71875 1.53125q0.203125 0.859375 0.203125 2.453125l0 8.59375zm2.6889648 5.609375q1.09375 -2.3125 1.53125 -3.5625q0.4375 -1.234375 0.8125 -2.84375q0.390625 -1.609375 0.5625 -3.0625q0.1875 -1.453125 0.1875 -2.96875q0 -3.109375 -0.671875 -5.875q-0.65625 -2.765625 -2.4375 -6.703125l2.484375 0q1.96875 2.796875 3.046875 5.9375q1.09375 3.140625 1.09375 6.359375q0 2.71875 -0.859375 5.828125q-0.984375 3.5 -3.21875 6.890625l-2.53125 0z" fill-rule="nonzero"/><path fill="#000000" fill-opacity="0.0" d="m288.52365 240.90038l179.8425 -66.83464" fill-rule="evenodd"/><path stroke="#000000" stroke-width="1.0" stroke-linejoin="round" stroke-linecap="butt" d="m288.52365 240.90039l174.21832 -64.74455" fill-rule="evenodd"/><path fill="#000000" stroke="#000000" stroke-width="1.0" stroke-linecap="butt" d="m463.31735 177.70412l3.6784668 -3.1291199l-4.829254 0.032577515z" fill-rule="evenodd"/><path fill="#000000" fill-opacity="0.0" d="m288.52365 240.90038l227.18112 -28.472443" fill-rule="evenodd"/><path stroke="#000000" stroke-width="1.0" stroke-linejoin="round" stroke-linecap="butt" d="m288.52365 240.90039l221.22766 -27.726303" fill-rule="evenodd"/><path fill="#000000" stroke="#000000" stroke-width="1.0" stroke-linecap="butt" d="m509.9567 214.81299l4.297455 -2.203247l-4.708252 -1.0745697z" fill-rule="evenodd"/><path fill="#000000" fill-opacity="0.0" d="m288.52365 240.90038l274.4882 9.921265" fill-rule="evenodd"/><path stroke="#000000" stroke-width="1.0" stroke-linejoin="round" stroke-linecap="butt" d="m288.52365 240.90039l268.49203 9.704529" fill-rule="evenodd"/><path fill="#000000" stroke="#000000" stroke-width="1.0" stroke-linecap="butt" d="m556.95605 252.25557l4.5947876 -1.4867249l-4.475464 -1.8145752z" fill-rule="evenodd"/><path fill="#000000" fill-opacity="0.0" d="m288.52365 240.90038l321.82675 48.283463" fill-rule="evenodd"/><path stroke="#000000" stroke-width="1.0" stroke-linejoin="round" stroke-linecap="butt" d="m288.52365 240.90039l315.89316 47.39325" fill-rule="evenodd"/><path fill="#000000" stroke="#000000" stroke-width="1.0" stroke-linecap="butt" d="m604.17175 289.9271l4.73291 -0.96014404l-4.242798 -2.3067627z" fill-rule="evenodd"/><path fill="#000000" fill-opacity="0.0" d="m288.52365 240.90038l369.13382 86.67717" fill-rule="evenodd"/><path stroke="#000000" stroke-width="1.0" stroke-linejoin="round" stroke-linecap="butt" d="m288.52365 240.90039l363.2927 85.30557" fill-rule="evenodd"/><path fill="#000000" stroke="#000000" stroke-width="1.0" stroke-linecap="butt" d="m651.4388 327.81396l4.795532 -0.57058716l-4.0404053 -2.6453857z" fill-rule="evenodd"/><path fill="#000000" fill-opacity="0.0" d="m288.52365 240.90038l416.47244 125.03938" fill-rule="evenodd"/><path stroke="#000000" stroke-width="1.0" stroke-linejoin="round" stroke-linecap="butt" d="m288.52365 240.90039l410.72586 123.31406" fill-rule="evenodd"/><path fill="#000000" stroke="#000000" stroke-width="1.0" stroke-linecap="butt" d="m698.77454 365.79642l4.82135 -0.27703857l-3.87146 -2.8869019z" fill-rule="evenodd"/></g></svg>